HIERARCHY
ROOT hip
{
  OFFSET 0 0 0
  CHANNELS 6 Xposition Yposition Zposition Zrotation Yrotation Xrotation
  JOINT abdomen
  {
    OFFSET 0 20.6881 -0.73152
    CHANNELS 3 Zrotation Xrotation Yrotation
    JOINT chest
    {
      OFFSET 0 11.7043 -0.48768
      CHANNELS 3 Zrotation Xrotation Yrotation
      JOINT neck
      {
        OFFSET 0 22.1894 -2.19456
        CHANNELS 3 Zrotation Xrotation Yrotation
        JOINT head
        {
          OFFSET -0.24384 7.07133 1.2192
          CHANNELS 3 Zrotation Xrotation Yrotation
          JOINT leftEye
          {
            OFFSET 4.14528 8.04674 8.04672
            CHANNELS 3 Zrotation Xrotation Yrotation
            End Site
            {
              OFFSET 1 0 0
            }
          }
          JOINT rightEye
          {
            OFFSET -3.6576 8.04674 8.04672
            CHANNELS 3 Zrotation Xrotation Yrotation
            End Site
            {
              OFFSET 1 0 0
            }
          }
        }
      }
      JOINT rCollar
      {
        OFFSET -2.68224 19.2634 -4.8768
        CHANNELS 3 Zrotation Xrotation Yrotation
        JOINT rShldr
        {
          OFFSET -8.77824 -1.95073 1.46304
          CHANNELS 3 Zrotation Xrotation Yrotation
          JOINT rForeArm
          {
            OFFSET -28.1742 -1.7115 0.48768
            CHANNELS 3 Zrotation Xrotation Yrotation
            JOINT rHand
            {
              OFFSET -22.5879 0.773209 7.07136
              CHANNELS 3 Zrotation Xrotation Yrotation
              JOINT rThumb1
              {
                OFFSET -1.2192 -0.487915 3.41376
                CHANNELS 3 Zrotation Xrotation Yrotation
                JOINT rThumb2
                {
                  OFFSET -3.37035 -0.52449 3.41376
                  CHANNELS 3 Zrotation Xrotation Yrotation
                  End Site
                  {
                    OFFSET -1.78271 -1.18214 1.43049
                  }
                }
              }
              JOINT rIndex1
              {
                OFFSET -7.75947 0.938293 5.60832
                CHANNELS 3 Zrotation Xrotation Yrotation
                JOINT rIndex2
                {
                  OFFSET -2.54057 -0.884171 1.56538
                  CHANNELS 3 Zrotation Xrotation Yrotation
                  End Site
                  {
                    OFFSET -1.62519 -0.234802 1.16502
                  }
                }
              }
              JOINT rMid1
              {
                OFFSET -8.24714 1.18213 3.41376
                CHANNELS 3 Zrotation Xrotation Yrotation
                JOINT rMid2
                {
                  OFFSET -3.10165 -0.590103 1.0647
                  CHANNELS 3 Zrotation Xrotation Yrotation
                  End Site
                  {
                    OFFSET -2.48547 -0.328903 0.83742
                  }
                }
              }
              JOINT rRing1
              {
                OFFSET -8.82822 0.546677 1.51678
                CHANNELS 3 Zrotation Xrotation Yrotation
                JOINT rRing2
                {
                  OFFSET -2.60934 -0.819778 -0.0198488
                  CHANNELS 3 Zrotation Xrotation Yrotation
                  End Site
                  {
                    OFFSET -2.33842 -0.294052 0.168128
                  }
                }
              }
              JOINT rPinky1
              {
                OFFSET -8.27202 -0.0477905 -0.4584
                CHANNELS 3 Zrotation Xrotation Yrotation
                JOINT rPinky2
                {
                  OFFSET -1.82734 -0.647385 -0.700984
                  CHANNELS 3 Zrotation Xrotation Yrotation
                  End Site
                  {
                    OFFSET -1.69225 -0.51767 -0.607171
                  }
                }
              }
            }
          }
        }
      }
      JOINT lCollar
      {
        OFFSET 2.68224 19.2634 -4.8768
        CHANNELS 3 Zrotation Xrotation Yrotation
        JOINT lShldr
        {
          OFFSET 8.77824 -1.95073 1.46304
          CHANNELS 3 Zrotation Xrotation Yrotation
          JOINT lForeArm
          {
            OFFSET 28.1742 -1.7115 0.48768
            CHANNELS 3 Zrotation Xrotation Yrotation
            JOINT lHand
            {
              OFFSET 22.5879 0.773209 7.07136
              CHANNELS 3 Zrotation Xrotation Yrotation
              JOINT lThumb1
              {
                OFFSET 1.2192 -0.487915 3.41376
                CHANNELS 3 Zrotation Xrotation Yrotation
                JOINT lThumb2
                {
                  OFFSET 3.37035 -0.52449 3.41376
                  CHANNELS 3 Zrotation Xrotation Yrotation
                  End Site
                  {
                    OFFSET 1.78271 -1.18214 1.43049
                  }
                }
              }
              JOINT lIndex1
              {
                OFFSET 7.75947 0.938293 5.60832
                CHANNELS 3 Zrotation Xrotation Yrotation
                JOINT lIndex2
                {
                  OFFSET 2.54057 -0.884171 1.56538
                  CHANNELS 3 Zrotation Xrotation Yrotation
                  End Site
                  {
                    OFFSET 1.62519 -0.234802 1.16502
                  }
                }
              }
              JOINT lMid1
              {
                OFFSET 8.24714 1.18213 3.41376
                CHANNELS 3 Zrotation Xrotation Yrotation
                JOINT lMid2
                {
                  OFFSET 3.10165 -0.590103 1.0647
                  CHANNELS 3 Zrotation Xrotation Yrotation
                  End Site
                  {
                    OFFSET 2.48547 -0.328903 0.83742
                  }
                }
              }
              JOINT lRing1
              {
                OFFSET 8.82822 0.546677 1.51678
                CHANNELS 3 Zrotation Xrotation Yrotation
                JOINT lRing2
                {
                  OFFSET 2.60934 -0.819778 -0.0198488
                  CHANNELS 3 Zrotation Xrotation Yrotation
                  End Site
                  {
                    OFFSET 2.33842 -0.294052 0.168128
                  }
                }
              }
              JOINT lPinky1
              {
                OFFSET 8.27202 -0.0477905 -0.4584
                CHANNELS 3 Zrotation Xrotation Yrotation
                JOINT lPinky2
                {
                  OFFSET 1.82734 -0.647385 -0.700984
                  CHANNELS 3 Zrotation Xrotation Yrotation
                  End Site
                  {
                    OFFSET 1.69225 -0.51767 -0.607171
                  }
                }
              }
            }
          }
        }
      }
    }
  }
  JOINT rButtock
  {
    OFFSET -8.77824 4.35084 1.2192
    CHANNELS 3 Zrotation Xrotation Yrotation
    JOINT rThigh
    {
      OFFSET 0 -1.70687 -2.19456
      CHANNELS 3 Zrotation Xrotation Yrotation
      JOINT rShin
      {
        OFFSET 0 -36.8199 0.73152
        CHANNELS 3 Zrotation Xrotation Yrotation
        JOINT rFoot
        {
          OFFSET 0.73152 -45.1104 -5.12064
          CHANNELS 3 Zrotation Xrotation Yrotation
          End Site
          {
            OFFSET -1.1221 -3.69964 12.103
          }
        }
      }
    }
  }
  JOINT lButtock
  {
    OFFSET 8.77824 4.35084 1.2192
    CHANNELS 3 Zrotation Xrotation Yrotation
    JOINT lThigh
    {
      OFFSET 0 -1.70687 -2.19456
      CHANNELS 3 Zrotation Xrotation Yrotation
      JOINT lShin
      {
        OFFSET 0 -36.8199 0.73152
        CHANNELS 3 Zrotation Xrotation Yrotation
        JOINT lFoot
        {
          OFFSET -0.73152 -45.1104 -5.12064
          CHANNELS 3 Zrotation Xrotation Yrotation
          End Site
          {
            OFFSET 1.1221 -3.69964 12.103
          }
        }
      }
    }
  }
}
MOTION
Frames:	6
Frame Time:	0.00833333
-135.071 83.4014 36.5636 -23.9699 -82.2735 29.6647 -2.36838 -3.40413 9.69577 -0.459982 -0.249415 2.69645 -4.51098 0.127552 -1.06468 12.1105 -14.1148 0.558761 -0.0 0.0 0.0 -0.0 0.0 0.0 -1.72316e-14 2.80628e-13 -2.3808e-14 27.1547 23.0444 62.4055 -28.0439 -30.8792 68.6528 -0.693211 22.9567 3.41288 6.96849e-10 -3.13248e-09 -1.6942e-09 1.17387e-09 -5.38008e-09 -2.93743e-09 6.96855e-10 -3.13247e-09 -1.6942e-09 7.73091 5.47488 0.417314 6.96842e-10 -3.13248e-09 -1.69419e-09 2.90554 0.965183 0.102902 6.96856e-10 -3.13248e-09 -1.6942e-09 10.2786 0.731801 0.0259123 6.96843e-10 -3.13248e-09 -1.69419e-09 2.22167 -0.733487 -0.20892 -1.73277e-14 2.80621e-13 -2.40258e-14 -45.4435 28.8904 -51.4949 27.1558 -26.8725 -62.2706 0.0713106 7.5982 -1.07422 2.4384e-09 -3.78799e-10 -5.5057e-10 4.21167e-09 -6.56077e-10 -9.71283e-10 2.4384e-09 -3.78795e-10 -5.50563e-10 -7.73091 5.47488 -0.417314 2.43841e-09 -3.78798e-10 -5.50583e-10 -2.90554 0.965183 -0.102902 2.4384e-09 -3.78794e-10 -5.50572e-10 -10.2786 0.731801 -0.0259123 2.4384e-09 -3.78794e-10 -5.50586e-10 -2.22167 -0.733487 0.20892 -2.03217e-16 0.0 -3.88251e-19 -7.80791 -30.2584 -16.9872 -0.835794 54.6697 1.0122 -0.631724 5.99087 -18.7251 2.03217e-16 0.0 3.88251e-19 -0.486782 -20.7329 -2.79157 0.0274322 24.9538 -0.247582 0.304055 -7.01863 -1.42832
-135.916 83.4452 36.6148 -21.887 -81.9874 27.6259 -2.55845 -3.42365 9.44955 -0.399624 -0.322719 2.6324 -4.60699 0.26526 -1.14532 12.3121 -14.5205 0.481558 -0.0 0.0 0.0 -0.0 0.0 0.0 -1.03953e-13 -7.35754e-14 5.93341e-14 26.8285 21.8829 63.0267 -28.0162 -30.7092 68.3829 -0.682939 22.7976 3.38648 1.46398e-09 -4.62114e-09 -2.01354e-09 2.49248e-09 -7.95945e-09 -3.50278e-09 1.46399e-09 -4.62114e-09 -2.01355e-09 7.73091 5.47488 0.417314 1.46398e-09 -4.62114e-09 -2.01354e-09 2.90554 0.965183 0.102902 1.46399e-09 -4.62114e-09 -2.01354e-09 10.2786 0.731801 0.0259123 1.46398e-09 -4.62114e-09 -2.01353e-09 2.22167 -0.733487 -0.20892 -1.04082e-13 -7.35758e-14 5.90825e-14 -44.3623 28.0309 -53.3163 27.136 -26.8028 -62.1606 0.0670688 7.36845 -1.04137 2.93528e-09 -4.6289e-10 -6.20254e-10 5.07057e-09 -8.0144e-10 -1.09439e-09 2.93528e-09 -4.62888e-10 -6.20246e-10 -7.73091 5.47488 -0.417314 2.93528e-09 -4.62891e-10 -6.20262e-10 -2.90554 0.965183 -0.102902 2.93527e-09 -4.62888e-10 -6.20255e-10 -10.2786 0.731801 -0.0259123 2.93528e-09 -4.62888e-10 -6.20265e-10 -2.22167 -0.733487 0.20892 -2.03217e-16 0.0 -3.88251e-19 -8.33904 -30.8374 -17.4632 -0.794339 53.835 0.989489 -0.795468 5.50313 -18.8621 2.03217e-16 0.0 3.88251e-19 -0.58227 -20.0398 -2.78079 0.0209139 24.6859 -0.275428 0.264158 -7.38989 -1.61239
-136.761 83.487 36.6604 -20.0054 -81.7033 25.7956 -2.73317 -3.45164 9.2044 -0.339328 -0.396523 2.56877 -4.70032 0.400554 -1.22243 12.5083 -14.9233 0.410636 -0.0 0.0 0.0 -0.0 0.0 0.0 -1.93138e-13 -4.59473e-13 1.29557e-13 26.5185 20.708 63.6429 -27.9844 -30.5211 68.0836 -0.673195 22.6452 3.36126 2.29985e-09 -6.20508e-09 -2.34132e-09 3.92985e-09 -1.07047e-08 -4.08373e-09 2.29985e-09 -6.20507e-09 -2.34134e-09 7.73091 5.47488 0.417314 2.29985e-09 -6.20508e-09 -2.34132e-09 2.90554 0.965183 0.102902 2.29985e-09 -6.20508e-09 -2.34132e-09 10.2786 0.731801 0.0259123 2.29985e-09 -6.20507e-09 -2.34132e-09 2.22167 -0.733487 -0.20892 -1.93293e-13 -4.59466e-13 1.29273e-13 -43.3548 27.1312 -55.0797 27.1116 -26.7178 -62.0258 0.0626164 7.11955 -1.00582 3.42505e-09 -5.73235e-10 -6.36178e-10 5.91716e-09 -9.92162e-10 -1.12407e-09 3.42504e-09 -5.73235e-10 -6.36169e-10 -7.73091 5.47488 -0.417314 3.42505e-09 -5.73237e-10 -6.36182e-10 -2.90554 0.965183 -0.102902 3.42504e-09 -5.73237e-10 -6.36179e-10 -10.2786 0.731801 -0.0259123 3.42505e-09 -5.73236e-10 -6.36185e-10 -2.22167 -0.733487 0.20892 -2.03217e-16 0.0 -3.88251e-19 -8.84196 -31.3767 -17.9043 -0.749711 52.8803 0.963602 -0.961286 5.00694 -18.9769 2.03217e-16 0.0 3.88251e-19 -0.660858 -19.3454 -2.76607 0.0148658 24.4035 -0.302595 0.223216 -7.75014 -1.78542
-137.606 83.5265 36.7031 -18.2995 -81.4241 24.1479 -2.89277 -3.4879 8.96108 -0.278181 -0.470032 2.50574 -4.78978 0.531664 -1.29496 12.6976 -15.3196 0.347154 -0.0 0.0 0.0 -0.0 0.0 0.0 -2.44806e-13 -7.09468e-13 1.49585e-13 26.2236 19.526 64.2498 -27.9491 -30.3168 67.7545 -0.664289 22.5044 3.33803 2.94387e-09 -7.4044e-09 -2.59931e-09 5.03772e-09 -1.27837e-08 -4.54044e-09 2.94387e-09 -7.4044e-09 -2.59932e-09 7.73091 5.47488 0.417314 2.94387e-09 -7.40441e-09 -2.59931e-09 2.90554 0.965183 0.102902 2.94388e-09 -7.4044e-09 -2.59931e-09 10.2786 0.731801 0.0259123 2.94387e-09 -7.4044e-09 -2.5993e-09 2.22167 -0.733487 -0.20892 -2.44965e-13 -7.09458e-13 1.49287e-13 -42.4287 26.1998 -56.7751 27.0826 -26.6178 -61.8651 0.0579366 6.85233 -0.967696 3.60491e-09 -6.30313e-10 -4.49692e-10 6.22866e-09 -1.0907e-09 -8.01728e-10 3.60491e-09 -6.30314e-10 -4.49683e-10 -7.73091 5.47488 -0.417314 3.60491e-09 -6.30316e-10 -4.49692e-10 -2.90554 0.965183 -0.102902 3.6049e-09 -6.30316e-10 -4.49691e-10 -10.2786 0.731801 -0.0259123 3.60492e-09 -6.30315e-10 -4.49695e-10 -2.22167 -0.733487 0.20892 -2.03217e-16 0.0 -3.88251e-19 -9.31422 -31.8765 -18.303 -0.703831 51.8201 0.935212 -1.11857 4.53072 -19.0653 2.03217e-16 0.0 3.88251e-19 -0.724241 -18.6508 -2.74792 0.00955616 24.111 -0.328278 0.18055 -8.09696 -1.95124
-138.451 83.5552 36.7433 -16.7531 -81.1529 22.6669 -3.03592 -3.53263 8.71929 -0.216025 -0.543973 2.44326 -4.87589 0.659099 -1.36308 12.8802 -15.7104 0.29111 -0.0 0.0 0.0 -0.0 0.0 0.0 -2.43845e-13 -7.79371e-13 8.36138e-14 25.9436 18.3384 64.8542 -27.9089 -30.0933 67.3953 -0.656009 22.3727 3.31632 3.41218e-09 -8.2698e-09 -2.83113e-09 5.84355e-09 -1.42834e-08 -4.94821e-09 3.41218e-09 -8.2698e-09 -2.83115e-09 7.73091 5.47488 0.417314 3.41218e-09 -8.2698e-09 -2.83114e-09 2.90554 0.965183 0.102902 3.41219e-09 -8.2698e-09 -2.83113e-09 10.2786 0.731801 0.0259123 3.41218e-09 -8.2698e-09 -2.83113e-09 2.22167 -0.733487 -0.20892 -2.43968e-13 -7.79365e-13 8.333e-14 -41.5818 25.2391 -58.4082 27.0484 -26.5008 -61.6779 0.0531935 6.56873 -0.927279 3.36063e-09 -6.14967e-10 1.04711e-10 5.8081e-09 -1.06385e-09 1.59779e-10 3.36062e-09 -6.14969e-10 1.0472e-10 -7.73091 5.47488 -0.417314 3.36063e-09 -6.1497e-10 1.04713e-10 -2.90554 0.965183 -0.102902 3.36062e-09 -6.14971e-10 1.04714e-10 -10.2786 0.731801 -0.0259123 3.36063e-09 -6.14969e-10 1.04711e-10 -2.22167 -0.733487 0.20892 -2.03217e-16 0.0 -3.88251e-19 -9.75059 -32.3351 -18.6568 -0.656759 50.6394 0.904571 -1.26672 4.07191 -19.1213 2.03217e-16 0.0 3.88251e-19 -0.76974 -17.9547 -2.72506 0.00505125 23.8052 -0.352742 0.136259 -8.43068 -2.11003
-139.298 83.5834 36.7819 -15.3228 -80.8916 21.3068 -3.16315 -3.58587 8.47877 -0.153317 -0.618456 2.38126 -4.95906 0.783476 -1.42721 13.0571 -16.0971 0.24205 -0.0 0.0 0.0 -0.0 0.0 0.0 -2.1306e-13 -7.58401e-13 -3.98563e-14 25.6786 17.1473 65.4635 -27.8629 -29.849 67.0079 -0.648248 22.2486 3.2959 3.81521e-09 -8.99765e-09 -3.05703e-09 6.53743e-09 -1.55445e-08 -5.34409e-09 3.81521e-09 -8.99765e-09 -3.05705e-09 7.73091 5.47488 0.417314 3.81521e-09 -8.99764e-09 -3.05703e-09 2.90554 0.965183 0.102902 3.81522e-09 -8.99764e-09 -3.05703e-09 10.2786 0.731801 0.0259123 3.81521e-09 -8.99764e-09 -3.05702e-09 2.22167 -0.733487 -0.20892 -2.1312e-13 -7.58401e-13 -4.01079e-14 -40.8106 24.2517 -59.9862 27.0086 -26.3667 -61.4656 0.0484671 6.26775 -0.884441 2.86486e-09 -5.68925e-10 9.05795e-10 4.95349e-09 -9.83812e-10 1.5498e-09 2.86486e-09 -5.68927e-10 9.05803e-10 -7.73091 5.47488 -0.417314 2.86486e-09 -5.68929e-10 9.05798e-10 -2.90554 0.965183 -0.102902 2.86485e-09 -5.68929e-10 9.058e-10 -10.2786 0.731801 -0.0259123 2.86487e-09 -5.68928e-10 9.05798e-10 -2.22167 -0.733487 0.20892 -2.03217e-16 0.0 -3.88251e-19 -10.1499 -32.7543 -18.9675 -0.60854 49.3367 0.872159 -1.40938 3.61831 -19.1488 2.03217e-16 0.0 3.88251e-19 -0.797798 -17.2572 -2.69777 0.00120583 23.4852 -0.37626 0.0910823 -8.75227 -2.25996
